<?xml version="1.0" encoding="UTF-8" standalone="no"?>
<svg
   xmlns:dc="http://purl.org/dc/elements/1.1/"
   xmlns:cc="http://creativecommons.org/ns#"
   xmlns:rdf="http://www.w3.org/1999/02/22-rdf-syntax-ns#"
   xmlns:svg="http://www.w3.org/2000/svg"
   xmlns="http://www.w3.org/2000/svg"
   xmlns:xlink="http://www.w3.org/1999/xlink"
   xmlns:sodipodi="http://sodipodi.sourceforge.net/DTD/sodipodi-0.dtd"
   xmlns:inkscape="http://www.inkscape.org/namespaces/inkscape"
   width="800pt"
   height="800pt"
   viewBox="0 0 800 800"
   version="1.1"
   id="svg2"
   inkscape:version="0.91 r13725"
   sodipodi:docname="FloralVortex2.svg">
  <metadata
     id="metadata122">
    <rdf:RDF>
      <cc:Work
         rdf:about="">
        <dc:format>image/svg+xml</dc:format>
        <dc:type
           rdf:resource="http://purl.org/dc/dcmitype/StillImage" />
        <dc:title></dc:title>
      </cc:Work>
    </rdf:RDF>
  </metadata>
  <defs
     id="defs120">
    <filter
       x="-0.25"
       width="1.5"
       y="-0.25"
       height="1.5"
       inkscape:menu-tooltip="Smooth rainbow colors melted along the edges and colorizable"
       inkscape:menu="Textures"
       inkscape:label="Tinted Rainbow"
       style="color-interpolation-filters:sRGB;"
       id="filter4584">
      <feGaussianBlur
         result="result8"
         stdDeviation="5"
         id="feGaussianBlur4586" />
      <feTurbulence
         baseFrequency="0.015"
         numOctaves="2"
         type="fractalNoise"
         result="result7"
         seed="20"
         id="feTurbulence4588" />
      <feComposite
         in="SourceGraphic"
         operator="in"
         result="result6"
         in2="result8"
         id="feComposite4590" />
      <feComposite
         in="result6"
         operator="arithmetic"
         result="result2"
         in2="result7"
         k3="1.7"
         id="feComposite4592" />
      <feComposite
         in2="result6"
         operator="in"
         in="result2"
         result="fbSourceGraphic"
         id="feComposite4594" />
      <feComposite
         in2="SourceGraphic"
         in="fbSourceGraphic"
         k3="0.3"
         k2="1.5"
         operator="arithmetic"
         result="result9"
         id="feComposite4596" />
    </filter>
  </defs>
  <sodipodi:namedview
     pagecolor="#ffffff"
     bordercolor="#666666"
     borderopacity="1"
     objecttolerance="10"
     gridtolerance="10"
     guidetolerance="10"
     inkscape:pageopacity="0"
     inkscape:pageshadow="2"
     inkscape:window-width="1600"
     inkscape:window-height="837"
     id="namedview118"
     showgrid="false"
     inkscape:zoom="0.67"
     inkscape:cx="500"
     inkscape:cy="500"
     inkscape:window-x="-8"
     inkscape:window-y="-8"
     inkscape:window-maximized="1"
     inkscape:current-layer="svg2"
     fit-margin-top="0"
     fit-margin-left="0"
     fit-margin-right="0"
     fit-margin-bottom="0" />
  <g
     id="g4375"
     transform="matrix(0.36954263,0,0,0.36954263,4.363329,212.85651)"
     style="filter:url(#filter4584)">
    <g
       inkscape:transform-center-y="-246.91924"
       inkscape:transform-center-x="522.11168"
       id="g4250">
      <path
         style="opacity:1;fill:#000000"
         inkscape:connector-curvature="0"
         d="m 368.45,0 4.39,0 c 16.76,4.06 21.62,25.72 17.67,40.28 -5.31,16.98 -8.22,34.75 -14.86,51.27 -3.5,5.6 -10.58,2.91 -13.62,-1.63 C 348.86,70.36 342.32,47.4 337.46,24.56 336.63,15.32 342.8,4.39 352.39,2.61 358.01,2.89 363.96,4.51 368.45,0 Z"
         id="path4" />
      <path
         style="opacity:1;fill:#000000"
         inkscape:connector-curvature="0"
         d="m 320.66,12.51 c 14.78,-1.16 10.93,21.86 13.23,31.37 -6.69,-0.26 -8.86,-8.96 -14.65,-11.23 -5.26,-2.28 -13.21,-3.42 -15.12,-9.66 2.24,-6.55 10.84,-7.85 16.54,-10.48 z"
         id="path6" />
      <path
         style="opacity:1;fill:#000000"
         inkscape:connector-curvature="0"
         d="m 398.39,12.25 c 7.64,0.49 21.48,5.88 17.45,15.4 -8.89,4.29 -12.16,13.71 -17.2,21.3 -8.14,0.43 0.47,-10.36 -0.56,-14.26 2.69,-6.48 -6.61,-18.29 0.31,-22.44 z"
         id="path8" />
      <path
         style="opacity:1;fill:#000000"
         inkscape:connector-curvature="0"
         d="m 296.63,32.49 c 25.11,2.64 44.89,27.05 50.87,50.84 6.33,4.66 11.22,16.13 2.13,20.44 -24.7,-4.54 -49.47,-10.68 -71.67,-22.67 -9.9,-16.07 -0.17,-43.94 18.67,-48.61 z"
         id="path10" />
      <path
         style="opacity:1;fill:#000000"
         inkscape:connector-curvature="0"
         d="m 424.83,35.41 c 13.44,-1.88 34.72,3.37 32.03,21.22 -8.58,23.38 -35.42,29.79 -52.98,44.28 -6.24,4.13 -21,7.21 -19.44,-4.32 12.32,-21.19 13.98,-51.65 40.39,-61.18 z"
         id="path12" />
      <path
         style="opacity:1;fill:#000000"
         inkscape:connector-curvature="0"
         d="m 462.5,60.19 c 9.13,-0.42 20.52,17.25 9.25,21.53 -5.66,-1.75 -22.34,0.19 -15.57,-8.59 3.11,-3.86 1.6,-10.38 6.32,-12.94 z"
         id="path14" />
      <path
         style="opacity:1;fill:#000000"
         inkscape:connector-curvature="0"
         d="m 155.8,71.38 c 6.1,-0.86 13.79,-2.3 16.66,4.53 8.26,-3.29 17.15,-3.48 22.21,5.41 12.07,28.49 -9.47,56.17 -29.17,74.59 -9.19,3.62 -22.35,-0.79 -20.29,-13.17 -4.7,-23.41 -16.98,-58.34 10.59,-71.36 z"
         id="path16" />
      <path
         style="opacity:1;fill:#000000"
         inkscape:connector-curvature="0"
         d="m 261.54,72.25 c 7.44,0.22 9.87,11.74 15.41,16.02 -2.59,6.27 -13.49,6.71 -18.83,11.82 -8.51,-6.09 -3.37,-21.77 3.42,-27.84 z"
         id="path18" />
      <path
         style="opacity:1;fill:#000000"
         inkscape:connector-curvature="0"
         d="m 121.74,73.41 c 4.37,-0.47 16.33,-2.77 15.05,5.29 -4.75,9.27 -5.9,19.54 -5.27,29.79 -11.91,1.36 -8.62,-18.93 -17.61,-24.58 -6.41,-5.87 2.28,-10.27 7.83,-10.5 z"
         id="path20" />
      <path
         style="opacity:1;fill:#000000"
         inkscape:connector-curvature="0"
         d="m 90.82,81.35 c 6.09,-1.09 13.32,-0.8 17.63,4.31 13.65,20.1 17.33,44.88 28.74,66.14 2.75,7.15 -9.26,8.95 -13.79,5.89 -15,-9.84 -30.69,-18.55 -47.03,-26.03 -11.52,-4.56 -21.31,-17.55 -18.18,-30.22 3.97,-8.97 15.09,-7.98 23.31,-7.68 3.79,-3.38 3.12,-11.92 9.32,-12.41 z"
         id="path22" />
      <path
         style="opacity:1;fill:#000000"
         inkscape:connector-curvature="0"
         d="m 207.47,82.07 c 11.17,-1.46 32.95,21.44 11.5,22.84 -6.22,1.26 -8.65,9.1 -14.88,10.09 -5.54,-2.07 -2.57,-9.76 -0.91,-13.83 3.51,-5.86 -1.18,-14.54 4.29,-19.1 z"
         id="path24" />
      <path
         style="opacity:1;fill:#000000"
         inkscape:connector-curvature="0"
         d="m 449.47,85.53 c 8.64,-0.34 17.2,3.49 25.16,6.67 6.7,5.27 2.59,14.9 5.1,22 3.03,8.22 -2.71,17.01 -11.07,18.48 -21.39,9.43 -43.45,-2.6 -65.18,-4.02 -10.64,1.54 -11.25,-14.97 -2.81,-18.1 17.81,-5.45 29.07,-23.79 48.8,-25.03 z"
         id="path26" />
      <path
         style="opacity:1;fill:#000000"
         inkscape:connector-curvature="0"
         d="m 281.65,98.48 c 20.54,-1.99 40.02,8.17 57.88,16.95 8.3,2.02 14.01,15.54 3.32,18.48 -23.73,13.51 -51.57,30.64 -79.59,19.87 -6.69,-8.72 -3.53,-21.64 -4.11,-32 -6.27,-13.67 11.32,-22.82 22.5,-23.3 z"
         id="path28" />
      <path
         style="opacity:1;fill:#000000"
         inkscape:connector-curvature="0"
         d="m 367.69,98.43 c 20.39,-1.7 29.96,29.27 15.6,42.06 -9.68,3.79 -21.6,1.84 -27.9,-6.91 -10.74,-11.36 -3.77,-33.2 12.3,-35.15 z"
         id="path30" />
      <path
         style="opacity:1;fill:#000000"
         inkscape:connector-curvature="0"
         d="m 218.93,109.35 c 15.41,-4.76 30.01,11.18 24.28,26.14 11.51,3.48 16.16,25.68 2.09,29.98 -21.3,3.28 -42.11,10.61 -63.91,10.6 -6.09,-4.35 -10.8,-15.09 -2.03,-19.79 18.66,-11.06 21.84,-35.75 39.57,-46.93 z"
         id="path32" />
      <path
         style="opacity:1;fill:#000000"
         inkscape:connector-curvature="0"
         d="m 48.48,119.28 c 7.72,2.43 13.39,12.72 21.68,16.6 -9.78,3.85 -22.98,-2.67 -33.23,3.81 -4.11,-5.95 5.41,-16.36 11.55,-20.41 z"
         id="path34" />
      <path
         style="opacity:1;fill:#000000"
         inkscape:connector-curvature="0"
         d="m 554.61,123.51 c 7,-1.74 13.54,4.84 20.64,1.67 6.35,-3.52 15.97,-2.43 17.87,5.81 8.07,20.41 -4.1,41.27 -14.84,58.15 -4.76,10.03 -18.24,4.72 -26.88,5.01 -5.8,-12.6 -7.84,-26.86 -14.39,-39.33 -6.44,-14.42 2.72,-29.67 17.6,-31.31 z"
         id="path36" />
      <path
         style="opacity:1;fill:#000000"
         inkscape:connector-curvature="0"
         d="m 521.09,132.35 c 2.57,0.07 6.31,0.65 7.32,3.36 -0.48,13.8 2.23,27.57 7.48,40.28 -6.35,-6.52 -11.07,-17.37 -20.99,-20.88 -5.27,-3.45 -17.26,-1.86 -13.43,-11.33 5.01,-5.54 11.76,-10.78 19.62,-11.43 z"
         id="path38" />
      <path
         style="opacity:1;fill:#000000"
         inkscape:connector-curvature="0"
         d="m 479.51,137.19 c 11.34,-1.3 7.7,28.29 -4.49,18.88 -6.05,-7.59 -22.49,-2.46 -24.83,-11.03 8.63,-2.97 21.31,-0.44 29.32,-7.85 z"
         id="path40" />
      <path
         style="opacity:1;fill:#000000"
         inkscape:connector-curvature="0"
         d="m 394.55,138.27 c 8.78,-2.08 16.07,3.77 23.9,6.34 17.43,3.55 36.32,8.86 48.68,22.34 6.79,11.44 -4.59,21.54 -5.38,32.72 -2.38,11.08 -17.76,16.17 -26.07,7.65 -18.03,-10.38 -17.21,-34.04 -32.21,-46.8 -4.42,-6.28 -13.93,-14.4 -8.92,-22.25 z"
         id="path42" />
      <path
         style="opacity:1;fill:#000000"
         inkscape:connector-curvature="0"
         d="m 52.67,141.38 c 21.09,-1.81 40.78,9.23 58.25,19.7 9.76,6.25 20.63,18.4 13.39,30.42 -25.27,5.67 -52.79,17.03 -78.25,5.5 -10.46,-5.5 -10.67,-17.86 -8.16,-27.81 -5.21,-11.42 4.43,-23.47 14.77,-27.81 z"
         id="path44" />
      <path
         style="opacity:1;fill:#000000"
         inkscape:connector-curvature="0"
         d="m 349.49,145.37 c 5.96,-0.52 17.37,1.93 14.49,10.59 -2.65,19.93 -10.8,38.31 -18.22,56.71 -6.94,20.87 -40.61,26.98 -46,2.58 -15.42,-3.13 -20.62,-24.34 -8.43,-34.08 12.73,-20.78 36.93,-27.96 58.16,-35.8 z"
         id="path46" />
      <path
         style="opacity:1;fill:#000000"
         inkscape:connector-curvature="0"
         d="m 378.57,150.08 c 22.13,7.55 34.93,33.05 39.31,55.16 5.85,15.14 -3.63,35.4 -21.37,33.98 -8.44,6.32 -23.74,9.8 -31.19,0.32 -13.26,-29.06 -2.8,-64.03 13.25,-89.46 z"
         id="path48" />
      <path
         style="opacity:1;fill:#000000"
         inkscape:connector-curvature="0"
         d="m 603.56,151.23 c 5.4,1.86 21.36,1.28 19.86,10.1 -13.73,2.33 -22.25,15.03 -33.17,20.49 4.1,-9.87 7,-22.05 13.31,-30.59 z"
         id="path50" />
      <path
         style="opacity:1;fill:#000000"
         inkscape:connector-curvature="0"
         d="m 491.79,157.38 c 21.54,-2.8 36.38,18.73 47.05,34.82 6.36,7.3 2.42,17.79 -2.81,24.3 -21.08,1.1 -44.35,0.9 -63.73,-8.65 -9.57,-5.35 -3.92,-16.37 1.1,-22.64 1.81,-11.14 5.15,-25.39 18.39,-27.83 z"
         id="path52" />
      <path
         style="opacity:1;fill:#000000"
         inkscape:connector-curvature="0"
         d="m 155.29,166.58 c 25.22,-0.8 25.05,40.89 0.53,41.34 -18.32,3.3 -27.31,-20.78 -19.17,-34.31 5.58,-3.51 12.17,-5.88 18.64,-7.03 z"
         id="path54" />
      <path
         style="opacity:1;fill:#000000"
         inkscape:connector-curvature="0"
         d="m 266.34,166.26 c 8.9,0.37 17.86,0.27 26.76,0.67 -6.08,5.69 -9.04,20.19 -18.33,19.54 -3.48,-5.06 -17.28,-14.78 -8.43,-20.21 z"
         id="path56" />
      <path
         style="opacity:1;fill:#000000"
         inkscape:connector-curvature="0"
         d="m 629.63,167.55 c 17.79,-1.49 30.77,17.89 23.48,34.05 8.2,9.34 5.61,27.24 -7.93,29.84 -19.73,0.26 -41.29,-0.12 -59.06,-9.7 -1.06,-6.05 -6.8,-12.4 -1.83,-18.26 13.27,-13.94 26.07,-30.31 45.34,-35.93 z"
         id="path58" />
      <path
         style="opacity:1;fill:#000000"
         inkscape:connector-curvature="0"
         d="m 761.42,177.56 c 19.57,-1.93 11.45,20.64 9.52,29.33 -5.31,-5.61 -11.66,-12.05 -20.11,-14.74 -7.97,-7.31 3.32,-14.08 10.59,-14.59 z"
         id="path60" />
      <path
         style="opacity:1;fill:#000000"
         inkscape:connector-curvature="0"
         d="m 238.66,180.51 c 14.66,-1.64 39.1,5.07 38.26,23.81 -8.73,7.65 2.7,22.81 -10.15,27.69 -30.47,8.02 -52.45,-20.26 -79.73,-27.83 -9.77,-1.36 -9.56,-10.26 -5.48,-17.18 19.33,1.03 38.17,-3.52 57.1,-6.49 z"
         id="path62" />
      <path
         style="opacity:1;fill:#000000"
         inkscape:connector-curvature="0"
         d="m 790.33,184.31 c 8.09,4.44 17.67,1.11 25.9,3.34 17.91,24.87 5.45,57.67 -7.88,81.58 -2.11,8.2 -10.26,9.57 -17.13,6.65 -2.25,-24.38 -16.96,-46.58 -14.55,-71.55 0.28,-8.51 4.65,-18.09 13.66,-20.02 z"
         id="path64" />
      <path
         style="opacity:1;fill:#000000"
         inkscape:connector-curvature="0"
         d="m 736.32,191.38 c 21.13,3.55 34.67,25.75 37.71,45.68 1.08,13.92 9.38,26.3 9.6,40.28 -14.23,11.69 -21.85,-11.04 -32.45,-16.54 -15.55,-7.03 -24.88,-21.67 -35.93,-33.99 -8.44,-7.65 -6.68,-27.61 7.58,-25.87 6.25,-0.28 6.95,-9.54 13.49,-9.56 z"
         id="path66" />
      <path
         style="opacity:1;fill:#000000"
         inkscape:connector-curvature="0"
         d="m 0,212.75 c 3.87,-10.74 12.8,-22.04 25.51,-20.32 12.86,-0.85 18.25,15.9 12.67,25.61 -3.15,10.62 -21.97,10.46 -19.79,23.71 7.33,52.2 59.64,90.01 109.81,94.87 24.64,1.95 51.92,-16.93 49.12,-43.66 -1.8,-12.14 10.22,-5.13 10.9,1.89 11.13,14.34 2.64,33.37 -11.14,42.22 -20.46,17.31 -49.38,12.95 -73.02,5.7 -2.12,0.67 -8.52,-4 -9.13,-0.12 29.27,15.03 63.11,21.53 95.72,16.05 14.12,-3.87 29.1,-9.95 36.41,-23.65 11.48,-16.14 14.62,-38.68 32.12,-50.04 14.6,-8.03 33.48,4.21 37.75,18.68 -5.28,15.3 -21.67,-2.06 -29.2,9.09 -10.86,16.1 -23.34,34.02 -42.74,40.08 -2.23,0.28 -6.15,4.97 -1.94,4.61 37.71,-7.17 76.82,-22 101.7,-52.66 6.48,-6.84 8,-16.82 8.11,-25.84 -12.14,-8.27 -28.43,-18.72 -24.57,-36.02 1.24,-7.78 10.81,-3.98 15.46,-1.47 0.14,6.13 -1.73,13.78 2.78,18.87 6.32,7.39 18.32,-1.21 24.48,6.64 12.87,11.66 7.76,31.73 -3.5,42.54 -42.69,48.78 -112.56,58.64 -173.66,60.56 0.3,5.26 8.31,1.51 11.8,2.51 20.65,5.42 42.22,2.12 63.23,1.76 68.22,-2.25 140.12,-34.32 175.42,-95.05 4.16,-9.3 7.95,-22.12 -0.62,-30.18 -8.69,-10.22 -2.2,-32 12.82,-29.68 14.39,0.09 23.34,16.16 19.03,29.07 -8.16,72.17 -80.51,115.89 -146.64,126.59 19.23,4.65 42.5,-5.96 62.29,-10.93 69.11,-17.87 138.46,-35.11 208.65,-48.37 50.99,-5.49 102.04,-12 153.38,-12.85 65.16,-3.58 129.36,11.44 192.31,26.47 29.53,12.09 60.28,22.72 86.32,41.74 40.87,23.34 77.43,61.29 85.16,109.27 l 0,4.54 c -2.15,13.37 -8.38,32.64 -24.26,34.02 l -7.14,0 c -16.46,-4.14 -13.48,-25.73 -0.4,-31.78 17.63,-5.46 9.09,-28.55 3.38,-40.77 -13.24,-17.49 -28.68,-34.44 -48.75,-44.27 -84.73,-53.77 -185.35,-77.71 -285.18,-77.97 -94.41,1.68 -190.31,10.06 -280.98,37.41 -48.55,13.93 -98.33,24.25 -148.46,30.69 C 240,404.72 171.26,398.93 111.19,369.8 59.45,342.45 9.89,297.62 0,237.24 l 0,-24.49 z"
         id="path68" />
      <path
         style="opacity:1;fill:#000000"
         inkscape:connector-curvature="0"
         d="m 831.39,193.12 c 6.63,0.87 16.82,4.34 16.47,12.23 -4.81,2.1 -8.75,8.01 -14.41,7.48 -3.7,-5.27 -8.3,-14.73 -2.06,-19.71 z"
         id="path70" />
      <path
         style="opacity:1;fill:#000000"
         inkscape:connector-curvature="0"
         d="m 116.66,203.42 c 8.13,-3.31 21.97,1.46 16.38,12.37 -13.54,21.79 -22.33,51.51 -49.2,60.28 -12.99,3.93 -29.86,-2.16 -31.81,-16.95 -8.87,-8.86 -13.5,-23.64 -3.35,-33.47 20.06,-13.48 45.33,-15.4 67.98,-22.23 z"
         id="path72" />
      <path
         style="opacity:1;fill:#000000"
         inkscape:connector-curvature="0"
         d="m 560.36,203.42 c 15.75,0.41 27.04,22.14 15.38,34.21 -8.27,6.06 -20.76,4.16 -28.61,-1.8 -7.57,-11.52 -1.22,-30.56 13.23,-32.41 z"
         id="path74" />
      <path
         style="opacity:1;fill:#000000"
         inkscape:connector-curvature="0"
         d="m 45.71,205.17 c 3.19,0.71 12.21,-1.79 12.15,3.54 -3.83,3.34 -7.32,8.23 -12.63,9.25 -3.58,-3.22 -4.97,-10.71 0.48,-12.79 z"
         id="path76" />
      <path
         style="opacity:1;fill:#000000"
         inkscape:connector-curvature="0"
         d="m 170.68,212.16 c 18.02,0.37 32.74,14.01 48.21,21.96 15.59,7.43 30.89,23.36 26.61,42.05 -3.59,8.74 -13.19,8.7 -20.95,9.68 1.71,12.8 -11.34,18.75 -22.13,14.87 -21.13,-20.23 -21.61,-51.78 -33.28,-77.06 -1.13,-3.67 -2.93,-9.5 1.54,-11.5 z"
         id="path78" />
      <path
         style="opacity:1;fill:#000000"
         inkscape:connector-curvature="0"
         d="m 859.58,212.45 c 14.71,-0.08 27.24,19.54 21.44,33.38 -12.19,15.8 -30.84,24.98 -48.1,34.16 -6.31,3.09 -21.47,7.84 -20.96,-3.89 9.1,-24.92 19.63,-54.64 47.62,-63.65 z"
         id="path80" />
      <path
         style="opacity:1;fill:#000000"
         inkscape:connector-curvature="0"
         d="m 146.39,216.33 c 11.68,-2.02 14.91,10.84 17.99,19.29 8.86,19.02 14.22,41.75 4.93,61.66 -5.14,13.01 -22.9,13.22 -32.39,5.06 -14.16,4.71 -24.63,-9.99 -21.37,-22.71 1.89,-17.69 12.46,-32.72 19.65,-48.49 1.84,-5.87 4.28,-13.56 11.19,-14.81 z"
         id="path82" />
      <path
         style="opacity:1;fill:#000000"
         inkscape:connector-curvature="0"
         d="m 467.52,218.31 c 13.43,0.82 26.24,5.71 39.72,6.16 3.81,5.04 -5.98,5.39 -8.66,5.34 -11.5,-1.71 -20.88,9.43 -31.86,7.6 -1.64,-4.62 -5.04,-16.25 0.8,-19.1 z"
         id="path84" />
      <path
         style="opacity:1;fill:#000000"
         inkscape:connector-curvature="0"
         d="m 349.44,221.2 c 9.36,1.48 4.59,19.89 9.52,26.71 -5.6,3.95 -28.15,3.65 -27.77,-8.27 6.8,-5.43 11.65,-12.94 18.25,-18.44 z"
         id="path86" />
      <path
         style="opacity:1;fill:#000000"
         inkscape:connector-curvature="0"
         d="m 701.59,227.22 c 7.87,-0.39 10.26,10.74 16.06,15.13 11.72,12.97 -9.01,5.34 -14.75,1.74 -10.66,-0.67 -8.87,-12.96 -1.31,-16.87 z"
         id="path88" />
      <path
         style="opacity:1;fill:#000000"
         inkscape:connector-curvature="0"
         d="m 587.19,234.4 c 16.92,9.33 36.34,12.23 53.61,20.74 14.81,3.69 14.28,26.37 1.46,32.41 1.14,13.36 -15.87,15.27 -25.71,15.18 -20.66,-11.58 -23.07,-38.02 -36.86,-55.52 -4.44,-5.23 3.79,-10.34 7.5,-12.81 z"
         id="path90" />
      <path
         style="opacity:1;fill:#000000"
         inkscape:connector-curvature="0"
         d="m 505.78,235.62 c 12.1,0.89 36.07,-7.58 39.07,10.15 -12.5,19.73 -17.61,46.39 -40.09,57.91 -11.18,8.45 -33.32,0.57 -29,-15.3 -13.04,-1.7 -18.93,-16.01 -13.13,-27.77 6.05,-17.79 26.66,-22.75 43.15,-24.99 z"
         id="path92" />
      <path
         style="opacity:1;fill:#000000"
         inkscape:connector-curvature="0"
         d="m 621.39,237.31 c 10.46,-0.49 21.13,5.16 31.33,0.39 11.83,-4.8 8.76,22.19 -2.03,15.79 -8.91,-5.55 -18.84,-8.96 -28.7,-12.48 -2.29,-0.07 -2.76,-3.53 -0.6,-3.7 z"
         id="path94" />
      <path
         style="opacity:1;fill:#000000"
         inkscape:connector-curvature="0"
         d="m 241.31,239.23 c 8.4,1.61 18.07,5.1 25.83,-0.12 4.16,7.53 -1.57,22.42 -9.99,27.22 -7.27,3.31 -5.56,-9.76 -8.44,-12.86 -1.35,-4.57 -10.75,-9.46 -7.4,-14.24 z"
         id="path96" />
      <path
         style="opacity:1;fill:#000000"
         inkscape:connector-curvature="0"
         d="m 557.79,251.19 c 11.75,-4.57 13.8,8 16.27,15.77 3.36,13.53 14.09,27.2 7.4,41.63 -16.36,1.21 -32.75,7.44 -48.65,7.38 -4.07,-23.47 9.16,-47.86 24.98,-64.78 z"
         id="path98" />
      <path
         style="opacity:1;fill:#000000"
         inkscape:connector-curvature="0"
         d="m 692.8,254.28 c 27.74,-0.76 50.76,17.64 72.94,31.97 3.62,1.67 2.79,8.43 -1.47,8.21 -23.48,2.15 -47,-1.78 -70.45,1.05 -10.94,3.14 -15.28,-10.59 -10.74,-18.36 4.82,-7.34 -1.4,-20.04 9.72,-22.87 z"
         id="path100" />
      <path
         style="opacity:1;fill:#000000"
         inkscape:connector-curvature="0"
         d="m 885.49,254.3 c 7.55,-1.68 13.61,9.5 9.98,15.58 -11.1,-0.8 -22.19,-1.45 -32.74,2.77 -4.42,1.15 -2.37,-4.27 0.89,-4.13 9.23,-1.31 14.06,-10.27 21.87,-14.22 z"
         id="path102" />
      <path
         style="opacity:1;fill:#000000"
         inkscape:connector-curvature="0"
         d="m 585.21,275.16 c 9.51,4.62 12.09,20.04 18.68,28.96 -3.94,2.08 -13.51,4.81 -17.75,0.65 1.11,-9.9 -0.32,-19.75 -0.93,-29.61 z"
         id="path104" />
      <path
         style="opacity:1;fill:#000000"
         inkscape:connector-curvature="0"
         d="m 660.83,278.37 c 6.25,-1.96 20,-0.34 17.72,9.12 -7.73,1.6 -18.48,4.66 -24.57,-1.86 -0.5,-4.02 3.27,-6.71 6.85,-7.26 z"
         id="path106" />
      <path
         style="opacity:1;fill:#000000"
         inkscape:connector-curvature="0"
         d="m 866.63,279.53 c 21.71,-9.99 46.06,11.92 33.52,33.17 -24.53,-0.88 -48.39,-9 -72.98,-10.65 -7.22,0.33 -7.44,-12.83 0.01,-12.98 12.91,-3.98 25.95,-8.12 39.45,-9.54 z"
         id="path108" />
      <path
         style="opacity:1;fill:#000000"
         inkscape:connector-curvature="0"
         d="m 100.68,280.55 c 10.43,-2.61 1.71,12.58 5.14,18.11 -8.34,5.95 -25.8,-0.46 -26.61,-11.22 5.78,-4.74 14.76,-3.37 21.47,-6.89 z"
         id="path110" />
      <path
         style="opacity:1;fill:#000000"
         inkscape:connector-curvature="0"
         d="m 789.78,287.53 c 7.04,-1.46 22.6,2.15 21.77,11.26 -10.42,0.92 -20.5,-3.01 -30.88,-3.3 -2.81,-5.23 5.5,-6.88 9.11,-7.96 z"
         id="path112" />
      <path
         style="opacity:1;fill:#000000"
         inkscape:connector-curvature="0"
         d="m 524.47,299.34 c 1.45,4.28 2.16,14.13 -0.16,19.93 -5.38,3.28 -14.77,0.21 -18.27,-4.43 3.7,-6.55 12.32,-10.65 18.43,-15.5 z"
         id="path114" />
      <path
         style="opacity:1;fill:#000000"
         inkscape:connector-curvature="0"
         d="m 474.77,312.4 c 4.36,-2.09 18.11,-0.64 9.07,5.4 -20.34,13.1 -44.42,19.45 -66.82,28.33 -3.17,-0.62 -12.12,4.71 -12.99,0.14 24.78,-8.62 47.21,-22.89 70.74,-33.87 z"
         id="path116" />
    </g>
    <use
       height="100%"
       width="100%"
       transform="matrix(0.8660254,-0.5,0.5,0.8660254,-109.77485,603.15315)"
       id="use4353"
       inkscape:transform-center-y="103.74268"
       inkscape:transform-center-x="532.78912"
       xlink:href="#g4250"
       y="0"
       x="0" />
    <use
       height="100%"
       width="100%"
       transform="matrix(0.5,-0.8660254,0.8660254,0.5,96.733913,1180.3865)"
       id="use4355"
       inkscape:transform-center-y="378.84191"
       inkscape:transform-center-x="422.73496"
       xlink:href="#g4250"
       y="0"
       x="0" />
    <use
       height="100%"
       width="100%"
       transform="matrix(0,-1,1,0,564.19242,1577.0309)"
       id="use4357"
       inkscape:transform-center-y="522.11166"
       inkscape:transform-center-x="246.91926"
       xlink:href="#g4250"
       y="0"
       x="0" />
    <use
       height="100%"
       width="100%"
       transform="matrix(-0.5,-0.8660254,0.8660254,-0.5,1167.3456,1686.8058)"
       id="use4359"
       inkscape:transform-center-y="532.78915"
       inkscape:transform-center-x="-103.74269"
       xlink:href="#g4250"
       y="0"
       x="0" />
    <use
       height="100%"
       width="100%"
       transform="matrix(-0.8660254,-0.5,0.5,-0.8660254,1744.579,1480.297)"
       id="use4361"
       inkscape:transform-center-y="422.73495"
       inkscape:transform-center-x="-378.84197"
       xlink:href="#g4250"
       y="0"
       x="0" />
    <use
       height="100%"
       width="100%"
       transform="matrix(-1,0,0,-1,2141.2234,1012.8385)"
       id="use4363"
       inkscape:transform-center-y="246.91926"
       inkscape:transform-center-x="-522.11172"
       xlink:href="#g4250"
       y="0"
       x="0" />
    <use
       height="100%"
       width="100%"
       transform="matrix(-0.8660254,0.5,-0.5,-0.8660254,2250.9983,409.68532)"
       id="use4365"
       inkscape:transform-center-y="-103.74269"
       inkscape:transform-center-x="-532.78921"
       xlink:href="#g4250"
       y="0"
       x="0" />
    <use
       height="100%"
       width="100%"
       transform="matrix(-0.5,0.8660254,-0.8660254,-0.5,2044.4895,-167.5481)"
       id="use4367"
       inkscape:transform-center-y="-378.84199"
       inkscape:transform-center-x="-422.73501"
       xlink:href="#g4250"
       y="0"
       x="0" />
    <use
       height="100%"
       width="100%"
       transform="matrix(0,1,-1,0,1577.0309,-564.19251)"
       id="use4369"
       inkscape:transform-center-y="-522.11175"
       inkscape:transform-center-x="-246.91922"
       xlink:href="#g4250"
       y="0"
       x="0" />
    <use
       height="100%"
       width="100%"
       transform="matrix(0.5,0.8660254,-0.8660254,0.5,973.87771,-673.96734)"
       id="use4371"
       inkscape:transform-center-y="-532.78917"
       inkscape:transform-center-x="103.74274"
       xlink:href="#g4250"
       y="0"
       x="0" />
    <use
       height="100%"
       width="100%"
       transform="matrix(0.8660254,0.5,-0.5,0.8660254,396.64431,-467.45854)"
       id="use4373"
       inkscape:transform-center-y="-422.73497"
       inkscape:transform-center-x="378.84202"
       xlink:href="#g4250"
       y="0"
       x="0" />
  </g>
</svg>
